<svg width="12468" height="14042" viewBox="0 0 12468 14042" fill="none" xmlns="http://www.w3.org/2000/svg">
<ellipse cx="6234" cy="7525.5" rx="6234" ry="6516.5" fill="#D9D9D9"/>
<path d="M3503 10828.7V5093.82C3503 4743.79 3940.2 4584.76 4165.09 4852.99L4430.26 5169.26C4632.21 5410.13 5023.11 5310.41 5085 5002.24L5742.51 1728.71C5822.21 1331.92 6387.16 1325.57 6475.77 1720.46L7619.54 6818C7691.12 7136.99 8108.23 7217.88 8293.85 6948.77L8389.54 6810.05C8601.52 6502.71 9083.46 6660.39 9072.79 7033.59L8963.42 10859.2L8925.44 11114.1L8849.48 11489L8763.02 11767.2C8757.37 11785.3 8750.35 11803.1 8742 11820.2L8657.07 11994.4C8644.72 12019.7 8629.56 12043.6 8611.87 12065.5L8457.04 12257.4L8302.99 12437.7C8286.17 12457.4 8267.37 12475.3 8246.87 12491.1L8054.05 12639.7L7807.19 12804.7L7585.45 12941.6C7567.33 12952.7 7548.3 12962.4 7528.55 12970.3L7264.95 13076.4L7053.01 13151.4C7028.39 13160.1 7002.93 13166.3 6977.05 13169.7L6703.72 13205.8H6376.68H6089.74L5703.08 13167.6C5682.38 13165.6 5661.89 13161.8 5641.81 13156.4L5347.05 13076.4L4978.63 12929.1C4955.64 12919.9 4933.62 12908.4 4912.89 12894.9L4625.47 12707.2L4323.57 12490C4302.65 12474.9 4283.33 12457.7 4265.93 12438.7L4100.1 12257.4L3843.26 11893.1C3833.05 11878.6 3823.88 11863.4 3815.82 11847.6L3713.99 11648.3L3610.6 11357.8L3551.53 11155.4L3507.93 10889.3C3504.65 10869.3 3503 10849 3503 10828.7Z" fill="url(#paint0_linear_1134_21)" stroke="black" stroke-width="3.74844"/>
<ellipse cx="6305.81" cy="10965.4" rx="1415.43" ry="1286.23" fill="#D9D9D9"/>
<ellipse cx="6758.1" cy="10576.6" rx="455.54" ry="388.759" fill="black"/>
<ellipse cx="6234.23" cy="11407.6" rx="244.039" ry="228.341" fill="black"/>
<ellipse cx="5645.28" cy="10657.6" rx="344.909" ry="307.827" fill="black"/>
<defs>
<linearGradient id="paint0_linear_1134_21" x1="6306" y1="1349.44" x2="6306" y2="13205.8" gradientUnits="userSpaceOnUse">
<stop stop-color="#000B27"/>
<stop offset="0.665" stop-color="#2450A5"/>
<stop offset="1" stop-color="#6AACDE"/>
</linearGradient>
</defs>
</svg>
